<mxfile host="Electron" modified="2024-09-11T12:49:08.665Z" agent="Mozilla/5.0 (Windows NT 10.0; Win64; x64) AppleWebKit/537.36 (KHTML, like Gecko) draw.io/24.2.5 Chrome/120.0.6099.109 Electron/28.1.0 Safari/537.36" etag="B-ZESqlBxyY9ldTvg3UN" version="24.2.5" type="device">
  <diagram name="msg_output（Page2クラス）" id="jZJfjHYVAHxolndhUvoj">
    <mxGraphModel dx="1036" dy="606" grid="1" gridSize="10" guides="1" tooltips="1" connect="1" arrows="1" fold="1" page="1" pageScale="1" pageWidth="827" pageHeight="1169" math="0" shadow="0">
      <root>
        <mxCell id="nJsbI3Y6XV_XgNzALeRu-0" />
        <mxCell id="nJsbI3Y6XV_XgNzALeRu-1" parent="nJsbI3Y6XV_XgNzALeRu-0" />
        <mxCell id="nJsbI3Y6XV_XgNzALeRu-2" value="" style="edgeStyle=orthogonalEdgeStyle;rounded=0;orthogonalLoop=1;jettySize=auto;html=1;" parent="nJsbI3Y6XV_XgNzALeRu-1" source="nJsbI3Y6XV_XgNzALeRu-3" edge="1">
          <mxGeometry relative="1" as="geometry">
            <mxPoint x="400" y="455" as="targetPoint" />
          </mxGeometry>
        </mxCell>
        <mxCell id="nJsbI3Y6XV_XgNzALeRu-3" value="開始" style="strokeWidth=2;html=1;shape=mxgraph.flowchart.start_1;whiteSpace=wrap;" parent="nJsbI3Y6XV_XgNzALeRu-1" vertex="1">
          <mxGeometry x="365" y="345" width="70" height="40" as="geometry" />
        </mxCell>
        <mxCell id="nJsbI3Y6XV_XgNzALeRu-4" value="&lt;b style=&quot;&quot;&gt;&lt;font style=&quot;&quot;&gt;&lt;font style=&quot;font-size: 18px;&quot;&gt;初期化メソッド&lt;/font&gt;&lt;/font&gt;&lt;/b&gt;&lt;div&gt;&lt;font style=&quot;font-size: 14px;&quot;&gt;クラス：Page1クラス&lt;/font&gt;&lt;/div&gt;&lt;div&gt;&lt;div style=&quot;font-size: 14px;&quot;&gt;&lt;font style=&quot;font-size: 14px;&quot;&gt;継承： BasePageクラス&lt;/font&gt;&lt;/div&gt;&lt;/div&gt;&lt;div style=&quot;font-size: 14px;&quot;&gt;&lt;font style=&quot;font-size: 14px;&quot;&gt;&lt;br&gt;&lt;/font&gt;&lt;/div&gt;&lt;div style=&quot;font-size: 14px;&quot;&gt;&lt;font style=&quot;font-size: 14px;&quot;&gt;クラスの役割&lt;/font&gt;&lt;/div&gt;&lt;div style=&quot;font-size: 14px;&quot;&gt;1ページ目で表示するUIの生成&lt;/div&gt;&lt;div style=&quot;font-size: 14px;&quot;&gt;&lt;br&gt;&lt;/div&gt;" style="text;html=1;align=left;verticalAlign=top;whiteSpace=wrap;rounded=0;fillColor=#f5f5f5;fontColor=#333333;strokeColor=#666666;" parent="nJsbI3Y6XV_XgNzALeRu-1" vertex="1">
          <mxGeometry x="20" y="30" width="340" height="130" as="geometry" />
        </mxCell>
        <mxCell id="nJsbI3Y6XV_XgNzALeRu-5" style="rounded=0;orthogonalLoop=1;jettySize=auto;html=1;entryX=1;entryY=0.5;entryDx=0;entryDy=0;exitX=-0.006;exitY=0.387;exitDx=0;exitDy=0;exitPerimeter=0;endArrow=none;endFill=0;entryPerimeter=0;" parent="nJsbI3Y6XV_XgNzALeRu-1" source="nJsbI3Y6XV_XgNzALeRu-6" target="nJsbI3Y6XV_XgNzALeRu-3" edge="1">
          <mxGeometry relative="1" as="geometry">
            <mxPoint x="435" y="325" as="targetPoint" />
          </mxGeometry>
        </mxCell>
        <mxCell id="nJsbI3Y6XV_XgNzALeRu-6" value="&amp;nbsp;引数１：self&lt;div&gt;&amp;nbsp;引数２：ページ番号：int型&lt;span style=&quot;background-color: initial;&quot;&gt;,&lt;/span&gt;&lt;/div&gt;" style="text;html=1;align=left;verticalAlign=top;whiteSpace=wrap;rounded=0;fillColor=#f5f5f5;fontColor=#333333;strokeColor=#666666;" parent="nJsbI3Y6XV_XgNzALeRu-1" vertex="1">
          <mxGeometry x="495" y="330" width="255" height="50" as="geometry" />
        </mxCell>
        <mxCell id="nJsbI3Y6XV_XgNzALeRu-7" value="終了" style="strokeWidth=2;html=1;shape=mxgraph.flowchart.start_1;whiteSpace=wrap;" parent="nJsbI3Y6XV_XgNzALeRu-1" vertex="1">
          <mxGeometry x="366" y="1410" width="70" height="40" as="geometry" />
        </mxCell>
        <mxCell id="nJsbI3Y6XV_XgNzALeRu-8" value="" style="edgeStyle=orthogonalEdgeStyle;rounded=0;orthogonalLoop=1;jettySize=auto;html=1;exitX=0.5;exitY=1;exitDx=0;exitDy=0;" parent="nJsbI3Y6XV_XgNzALeRu-1" source="YN52v2t6Biwfo9pnNPqH-3" target="nJsbI3Y6XV_XgNzALeRu-7" edge="1">
          <mxGeometry relative="1" as="geometry">
            <mxPoint x="401" y="1000" as="sourcePoint" />
          </mxGeometry>
        </mxCell>
        <mxCell id="YN52v2t6Biwfo9pnNPqH-2" value="" style="edgeStyle=orthogonalEdgeStyle;rounded=0;orthogonalLoop=1;jettySize=auto;html=1;" parent="nJsbI3Y6XV_XgNzALeRu-1" source="YN52v2t6Biwfo9pnNPqH-0" target="YN52v2t6Biwfo9pnNPqH-1" edge="1">
          <mxGeometry relative="1" as="geometry" />
        </mxCell>
        <mxCell id="YN52v2t6Biwfo9pnNPqH-0" value="入力フォームから値(id)を取得" style="rounded=1;whiteSpace=wrap;html=1;" parent="nJsbI3Y6XV_XgNzALeRu-1" vertex="1">
          <mxGeometry x="301" y="457" width="200" height="60" as="geometry" />
        </mxCell>
        <mxCell id="YN52v2t6Biwfo9pnNPqH-4" value="&lt;b&gt;Yes&lt;/b&gt;" style="edgeStyle=orthogonalEdgeStyle;rounded=0;orthogonalLoop=1;jettySize=auto;html=1;" parent="nJsbI3Y6XV_XgNzALeRu-1" source="YN52v2t6Biwfo9pnNPqH-1" target="YN52v2t6Biwfo9pnNPqH-3" edge="1">
          <mxGeometry x="-0.7778" y="-21" relative="1" as="geometry">
            <mxPoint as="offset" />
          </mxGeometry>
        </mxCell>
        <mxCell id="YN52v2t6Biwfo9pnNPqH-7" value="" style="edgeStyle=orthogonalEdgeStyle;rounded=0;orthogonalLoop=1;jettySize=auto;html=1;entryX=0.5;entryY=0;entryDx=0;entryDy=0;entryPerimeter=0;" parent="nJsbI3Y6XV_XgNzALeRu-1" target="YN52v2t6Biwfo9pnNPqH-6" edge="1">
          <mxGeometry relative="1" as="geometry">
            <mxPoint x="722" y="790" as="sourcePoint" />
          </mxGeometry>
        </mxCell>
        <mxCell id="YN52v2t6Biwfo9pnNPqH-1" value="取得したidが存在しない" style="strokeWidth=2;html=1;shape=mxgraph.flowchart.decision;whiteSpace=wrap;" parent="nJsbI3Y6XV_XgNzALeRu-1" vertex="1">
          <mxGeometry x="296" y="600" width="210" height="100" as="geometry" />
        </mxCell>
        <mxCell id="YN52v2t6Biwfo9pnNPqH-3" value="入力フォームの下にエラーメッセージ用のラベルを表示する" style="rounded=1;whiteSpace=wrap;html=1;" parent="nJsbI3Y6XV_XgNzALeRu-1" vertex="1">
          <mxGeometry x="301" y="820" width="200" height="60" as="geometry" />
        </mxCell>
        <mxCell id="YN52v2t6Biwfo9pnNPqH-5" value="メッセージ内容&lt;div&gt;&lt;span style=&quot;background-color: initial;&quot;&gt;　※idを入力してください。&lt;/span&gt;&lt;/div&gt;" style="text;html=1;align=left;verticalAlign=top;whiteSpace=wrap;rounded=0;fillColor=#f5f5f5;fontColor=#333333;strokeColor=#666666;" parent="nJsbI3Y6XV_XgNzALeRu-1" vertex="1">
          <mxGeometry x="130" y="790" width="166" height="40" as="geometry" />
        </mxCell>
        <mxCell id="gtcTSVuNaXHKUAd8Zgq--4" value="" style="edgeStyle=orthogonalEdgeStyle;rounded=0;orthogonalLoop=1;jettySize=auto;html=1;" parent="nJsbI3Y6XV_XgNzALeRu-1" source="YN52v2t6Biwfo9pnNPqH-6" edge="1">
          <mxGeometry relative="1" as="geometry">
            <mxPoint x="722" y="1060" as="targetPoint" />
          </mxGeometry>
        </mxCell>
        <mxCell id="YN52v2t6Biwfo9pnNPqH-6" value="変数dataに値が&lt;div&gt;存在しない&lt;/div&gt;" style="strokeWidth=2;html=1;shape=mxgraph.flowchart.decision;whiteSpace=wrap;" parent="nJsbI3Y6XV_XgNzALeRu-1" vertex="1">
          <mxGeometry x="617" y="880" width="210" height="100" as="geometry" />
        </mxCell>
        <mxCell id="YN52v2t6Biwfo9pnNPqH-9" value="" style="edgeStyle=orthogonalEdgeStyle;rounded=0;orthogonalLoop=1;jettySize=auto;html=1;entryX=0.5;entryY=0;entryDx=0;entryDy=0;entryPerimeter=0;" parent="nJsbI3Y6XV_XgNzALeRu-1" source="YN52v2t6Biwfo9pnNPqH-1" edge="1">
          <mxGeometry relative="1" as="geometry">
            <mxPoint x="506" y="650" as="sourcePoint" />
            <mxPoint x="722" y="730" as="targetPoint" />
          </mxGeometry>
        </mxCell>
        <mxCell id="gtcTSVuNaXHKUAd8Zgq--1" value="&lt;b&gt;No&lt;/b&gt;" style="edgeLabel;html=1;align=center;verticalAlign=middle;resizable=0;points=[];" parent="YN52v2t6Biwfo9pnNPqH-9" vertex="1" connectable="0">
          <mxGeometry x="-0.8516" y="-4" relative="1" as="geometry">
            <mxPoint x="-22" y="-24" as="offset" />
          </mxGeometry>
        </mxCell>
        <mxCell id="gtcTSVuNaXHKUAd8Zgq--0" value="self.diary_controller&lt;br&gt;.get_one()" style="shape=process;whiteSpace=wrap;html=1;backgroundOutline=1;" parent="nJsbI3Y6XV_XgNzALeRu-1" vertex="1">
          <mxGeometry x="627" y="730" width="190" height="60" as="geometry" />
        </mxCell>
        <mxCell id="gtcTSVuNaXHKUAd8Zgq--2" value="下記の引数を渡す。&lt;div&gt;引数１：取得したid&lt;/div&gt;&lt;div&gt;&lt;br&gt;&lt;/div&gt;&lt;div&gt;※渡したIDのレコードデータ（Diaryテーブル）を取得し、変数[data]へ代入&lt;/div&gt;" style="text;html=1;align=left;verticalAlign=top;whiteSpace=wrap;rounded=0;fillColor=#f5f5f5;fontColor=#333333;strokeColor=#666666;" parent="nJsbI3Y6XV_XgNzALeRu-1" vertex="1">
          <mxGeometry x="840" y="700" width="151" height="110" as="geometry" />
        </mxCell>
        <mxCell id="gtcTSVuNaXHKUAd8Zgq--8" value="" style="edgeStyle=orthogonalEdgeStyle;rounded=0;orthogonalLoop=1;jettySize=auto;html=1;" parent="nJsbI3Y6XV_XgNzALeRu-1" source="gtcTSVuNaXHKUAd8Zgq--5" target="gtcTSVuNaXHKUAd8Zgq--7" edge="1">
          <mxGeometry relative="1" as="geometry" />
        </mxCell>
        <mxCell id="gtcTSVuNaXHKUAd8Zgq--5" value="dataにエラーメッセージを&lt;br&gt;代入" style="rounded=1;whiteSpace=wrap;html=1;" parent="nJsbI3Y6XV_XgNzALeRu-1" vertex="1">
          <mxGeometry x="622" y="1061" width="200" height="60" as="geometry" />
        </mxCell>
        <mxCell id="gtcTSVuNaXHKUAd8Zgq--6" value="メッセージ内容&lt;div&gt;　指定のIDのデータは存在しません。&lt;/div&gt;" style="text;html=1;align=left;verticalAlign=top;whiteSpace=wrap;rounded=0;fillColor=#f5f5f5;fontColor=#333333;strokeColor=#666666;" parent="nJsbI3Y6XV_XgNzALeRu-1" vertex="1">
          <mxGeometry x="840" y="1040" width="151" height="60" as="geometry" />
        </mxCell>
        <mxCell id="gtcTSVuNaXHKUAd8Zgq--7" value="メッセージボックス表示&lt;div&gt;変数dataを表示&lt;/div&gt;" style="rounded=1;whiteSpace=wrap;html=1;" parent="nJsbI3Y6XV_XgNzALeRu-1" vertex="1">
          <mxGeometry x="622" y="1201" width="200" height="60" as="geometry" />
        </mxCell>
        <mxCell id="gtcTSVuNaXHKUAd8Zgq--9" style="edgeStyle=orthogonalEdgeStyle;rounded=0;orthogonalLoop=1;jettySize=auto;html=1;" parent="nJsbI3Y6XV_XgNzALeRu-1" source="gtcTSVuNaXHKUAd8Zgq--7" edge="1">
          <mxGeometry relative="1" as="geometry">
            <mxPoint x="401" y="1330" as="targetPoint" />
            <Array as="points">
              <mxPoint x="722" y="1330" />
            </Array>
          </mxGeometry>
        </mxCell>
      </root>
    </mxGraphModel>
  </diagram>
</mxfile>
